<?xml version="1.0" encoding="UTF-8" standalone="no"?>
<!DOCTYPE svg PUBLIC "-//W3C//DTD SVG 1.1//EN"
 "http://www.w3.org/Graphics/SVG/1.1/DTD/svg11.dtd">
<!-- Generated by graphviz version 2.43.0 (0)
 -->
<!-- Title: %3 Pages: 1 -->
<svg width="1037pt" height="807pt"
 viewBox="72.00 72.00 964.50 735.00" xmlns="http://www.w3.org/2000/svg" xmlns:xlink="http://www.w3.org/1999/xlink">
<g id="graph0" class="graph" transform="scale(1 1) rotate(0) translate(144 663)">
<title>%3</title>
<polygon fill="white" stroke="transparent" points="-72,72 -72,-591 820.5,-591 820.5,72 -72,72"/>
<g id="clust1" class="cluster">
<title>cluster_sources</title>
<path fill="white" stroke="green" d="M408,-449C408,-449 711,-449 711,-449 717,-449 723,-455 723,-461 723,-461 723,-499 723,-499 723,-505 717,-511 711,-511 711,-511 408,-511 408,-511 402,-511 396,-505 396,-499 396,-499 396,-461 396,-461 396,-455 402,-449 408,-449"/>
<text text-anchor="middle" x="559.5" y="-497.4" font-family="Times,serif" font-size="12.00">Data Sources</text>
</g>
<g id="clust2" class="cluster">
<title>cluster_transformers</title>
<path fill="white" stroke="blue" d="M225,-155C225,-155 504,-155 504,-155 510,-155 516,-161 516,-167 516,-167 516,-352 516,-352 516,-358 510,-364 504,-364 504,-364 225,-364 225,-364 219,-364 213,-358 213,-352 213,-352 213,-167 213,-167 213,-161 219,-155 225,-155"/>
<text text-anchor="middle" x="364.5" y="-350.4" font-family="Times,serif" font-size="12.00">Processors</text>
</g>
<g id="clust3" class="cluster">
<title>cluster_consumers</title>
<path fill="white" stroke="red" d="M20,-8C20,-8 544,-8 544,-8 550,-8 556,-14 556,-20 556,-20 556,-58 556,-58 556,-64 550,-70 544,-70 544,-70 20,-70 20,-70 14,-70 8,-64 8,-58 8,-58 8,-20 8,-20 8,-14 14,-8 20,-8"/>
<text text-anchor="middle" x="282" y="-56.4" font-family="Times,serif" font-size="12.00">Data Consumers</text>
</g>
<!-- SearchKBArticles -->
<g id="node1" class="node">
<title>SearchKBArticles</title>
<path fill="lightgreen" stroke="black" d="M709.5,-489C709.5,-489 616.5,-489 616.5,-489 610.5,-489 604.5,-483 604.5,-477 604.5,-477 604.5,-462 604.5,-462 604.5,-456 610.5,-450 616.5,-450 616.5,-450 709.5,-450 709.5,-450 715.5,-450 721.5,-456 721.5,-462 721.5,-462 721.5,-477 721.5,-477 721.5,-483 715.5,-489 709.5,-489"/>
<text text-anchor="middle" x="663" y="-467" font-family="Arial" font-size="10.00">Searchkbarticles</text>
</g>
<!-- LinkIncidentToKB -->
<g id="node10" class="node">
<title>LinkIncidentToKB</title>
<path fill="lightgrey" stroke="black" d="M736.5,-48C736.5,-48 639.5,-48 639.5,-48 633.5,-48 627.5,-42 627.5,-36 627.5,-36 627.5,-21 627.5,-21 627.5,-15 633.5,-9 639.5,-9 639.5,-9 736.5,-9 736.5,-9 742.5,-9 748.5,-15 748.5,-21 748.5,-21 748.5,-36 748.5,-36 748.5,-42 742.5,-48 736.5,-48"/>
<text text-anchor="middle" x="688" y="-26" font-family="Arial" font-size="10.00">LinkIncidentToKB</text>
</g>
<!-- SearchKBArticles&#45;&gt;LinkIncidentToKB -->
<g id="edge12" class="edge">
<title>SearchKBArticles&#45;&gt;LinkIncidentToKB</title>
<path fill="none" stroke="black" stroke-width="1.5" d="M671.88,-449.8C759.72,-254.61 761.51,-240.27 697.2,-54.93"/>
<polygon fill="black" stroke="black" stroke-width="1.5" points="699.49,-54.07 694.88,-48.26 694.87,-55.68 699.49,-54.07"/>
</g>
<!-- GetCompanyByName -->
<g id="node2" class="node">
<title>GetCompanyByName</title>
<path fill="lightgreen" stroke="black" d="M520.5,-489C520.5,-489 409.5,-489 409.5,-489 403.5,-489 397.5,-483 397.5,-477 397.5,-477 397.5,-462 397.5,-462 397.5,-456 403.5,-450 409.5,-450 409.5,-450 520.5,-450 520.5,-450 526.5,-450 532.5,-456 532.5,-462 532.5,-462 532.5,-477 532.5,-477 532.5,-483 526.5,-489 520.5,-489"/>
<text text-anchor="middle" x="465" y="-467" font-family="Arial" font-size="10.00">Getcompanybyname</text>
</g>
<!-- SearchUsers -->
<g id="node3" class="node">
<title>SearchUsers</title>
<path fill="lightblue" stroke="black" d="M502.5,-342C502.5,-342 427.5,-342 427.5,-342 421.5,-342 415.5,-336 415.5,-330 415.5,-330 415.5,-315 415.5,-315 415.5,-309 421.5,-303 427.5,-303 427.5,-303 502.5,-303 502.5,-303 508.5,-303 514.5,-309 514.5,-315 514.5,-315 514.5,-330 514.5,-330 514.5,-336 508.5,-342 502.5,-342"/>
<text text-anchor="middle" x="465" y="-320" font-family="Arial" font-size="10.00">Searchusers</text>
</g>
<!-- GetCompanyByName&#45;&gt;SearchUsers -->
<g id="edge1" class="edge">
<title>GetCompanyByName&#45;&gt;SearchUsers</title>
<path fill="none" stroke="purple" stroke-dasharray="5,2" d="M471.31,-449.99C479.75,-422.02 479.13,-408.86 469.46,-349.48"/>
<polygon fill="purple" stroke="purple" points="471.85,-348.92 468.3,-342.41 467.01,-349.71 471.85,-348.92"/>
</g>
<!-- SearchDepartments -->
<g id="node6" class="node">
<title>SearchDepartments</title>
<path fill="lightblue" stroke="black" d="M331.5,-342C331.5,-342 226.5,-342 226.5,-342 220.5,-342 214.5,-336 214.5,-330 214.5,-330 214.5,-315 214.5,-315 214.5,-309 220.5,-303 226.5,-303 226.5,-303 331.5,-303 331.5,-303 337.5,-303 343.5,-309 343.5,-315 343.5,-315 343.5,-330 343.5,-330 343.5,-336 337.5,-342 331.5,-342"/>
<text text-anchor="middle" x="279" y="-320" font-family="Arial" font-size="10.00">Searchdepartments</text>
</g>
<!-- GetCompanyByName&#45;&gt;SearchDepartments -->
<g id="edge2" class="edge">
<title>GetCompanyByName&#45;&gt;SearchDepartments</title>
<path fill="none" stroke="purple" stroke-dasharray="5,2" d="M402.69,-449.86C367.64,-435.05 348.77,-413.6 298.23,-347.67"/>
<polygon fill="purple" stroke="purple" points="300.09,-346.07 293.89,-342 296.2,-349.05 300.09,-346.07"/>
</g>
<!-- GetIncident -->
<g id="node4" class="node">
<title>GetIncident</title>
<path fill="lightblue" stroke="black" d="M500,-195C500,-195 430,-195 430,-195 424,-195 418,-189 418,-183 418,-183 418,-168 418,-168 418,-162 424,-156 430,-156 430,-156 500,-156 500,-156 506,-156 512,-162 512,-168 512,-168 512,-183 512,-183 512,-189 506,-195 500,-195"/>
<text text-anchor="middle" x="465" y="-173" font-family="Arial" font-size="10.00">Getincident</text>
</g>
<!-- SearchUsers&#45;&gt;GetIncident -->
<g id="edge3" class="edge">
<title>SearchUsers&#45;&gt;GetIncident</title>
<path fill="none" stroke="purple" stroke-dasharray="5,2" d="M472.44,-302.78C490.54,-254.15 491.65,-242.23 475.77,-201.78"/>
<polygon fill="purple" stroke="purple" points="477.94,-200.63 473.07,-195.04 473.39,-202.45 477.94,-200.63"/>
</g>
<!-- SearchIncidents -->
<g id="node5" class="node">
<title>SearchIncidents</title>
<path fill="lightblue" stroke="black" d="M324,-195C324,-195 234,-195 234,-195 228,-195 222,-189 222,-183 222,-183 222,-168 222,-168 222,-162 228,-156 234,-156 234,-156 324,-156 324,-156 330,-156 336,-162 336,-168 336,-168 336,-183 336,-183 336,-189 330,-195 324,-195"/>
<text text-anchor="middle" x="279" y="-173" font-family="Arial" font-size="10.00">Searchincidents</text>
</g>
<!-- SearchUsers&#45;&gt;SearchIncidents -->
<g id="edge5" class="edge">
<title>SearchUsers&#45;&gt;SearchIncidents</title>
<path fill="none" stroke="purple" stroke-dasharray="5,2" d="M448.2,-302.95C391.48,-237.04 370.05,-213.76 339.87,-198.31"/>
<polygon fill="purple" stroke="purple" points="340.65,-195.97 333.29,-195.12 338.52,-200.38 340.65,-195.97"/>
</g>
<!-- SearchChangeRequests -->
<g id="node7" class="node">
<title>SearchChangeRequests</title>
<path fill="lightcoral" stroke="black" d="M331,-48C331,-48 211,-48 211,-48 205,-48 199,-42 199,-36 199,-36 199,-21 199,-21 199,-15 205,-9 211,-9 211,-9 331,-9 331,-9 337,-9 343,-15 343,-21 343,-21 343,-36 343,-36 343,-42 337,-48 331,-48"/>
<text text-anchor="middle" x="271" y="-26" font-family="Arial" font-size="10.00">Searchchangerequests</text>
</g>
<!-- GetIncident&#45;&gt;SearchChangeRequests -->
<g id="edge11" class="edge">
<title>GetIncident&#45;&gt;SearchChangeRequests</title>
<path fill="none" stroke="purple" stroke-dasharray="5,2" d="M449.11,-155.89C395.7,-90.13 374.43,-65.97 342.43,-50.92"/>
<polygon fill="purple" stroke="purple" points="343.27,-48.61 335.88,-48.02 341.29,-53.1 343.27,-48.61"/>
</g>
<!-- GetIncidentTasks -->
<g id="node8" class="node">
<title>GetIncidentTasks</title>
<path fill="lightcoral" stroke="black" d="M115,-48C115,-48 21,-48 21,-48 15,-48 9,-42 9,-36 9,-36 9,-21 9,-21 9,-15 15,-9 21,-9 21,-9 115,-9 115,-9 121,-9 127,-15 127,-21 127,-21 127,-36 127,-36 127,-42 121,-48 115,-48"/>
<text text-anchor="middle" x="68" y="-26" font-family="Arial" font-size="10.00">Getincidenttasks</text>
</g>
<!-- GetIncident&#45;&gt;GetIncidentTasks -->
<g id="edge10" class="edge">
<title>GetIncident&#45;&gt;GetIncidentTasks</title>
<path fill="none" stroke="black" stroke-width="1.5" d="M431.29,-155.89C256.76,-54.44 220.67,-36.03 134.33,-30.79"/>
<polygon fill="black" stroke="black" stroke-width="1.5" points="134.32,-28.34 127.2,-30.39 134.05,-33.23 134.32,-28.34"/>
</g>
<!-- GetIncidentComments -->
<g id="node9" class="node">
<title>GetIncidentComments</title>
<path fill="lightcoral" stroke="black" d="M543,-48C543,-48 427,-48 427,-48 421,-48 415,-42 415,-36 415,-36 415,-21 415,-21 415,-15 421,-9 427,-9 427,-9 543,-9 543,-9 549,-9 555,-15 555,-21 555,-21 555,-36 555,-36 555,-42 549,-48 543,-48"/>
<text text-anchor="middle" x="485" y="-26" font-family="Arial" font-size="10.00">Getincidentcomments</text>
</g>
<!-- GetIncident&#45;&gt;GetIncidentComments -->
<g id="edge9" class="edge">
<title>GetIncident&#45;&gt;GetIncidentComments</title>
<path fill="none" stroke="black" stroke-width="1.5" d="M470.23,-155.63C485.99,-95.64 489.54,-79.39 487.89,-55.26"/>
<polygon fill="black" stroke="black" stroke-width="1.5" points="490.32,-54.97 487.29,-48.2 485.44,-55.38 490.32,-54.97"/>
</g>
<!-- GetIncident&#45;&gt;LinkIncidentToKB -->
<g id="edge13" class="edge">
<title>GetIncident&#45;&gt;LinkIncidentToKB</title>
<path fill="none" stroke="black" stroke-width="1.5" d="M493.25,-155.95C588.17,-90.3 613.83,-72.8 648.61,-51.8"/>
<polygon fill="black" stroke="black" stroke-width="1.5" points="650.02,-53.81 654.76,-48.11 647.49,-49.61 650.02,-53.81"/>
</g>
<!-- SearchIncidents&#45;&gt;SearchChangeRequests -->
<g id="edge8" class="edge">
<title>SearchIncidents&#45;&gt;SearchChangeRequests</title>
<path fill="none" stroke="purple" stroke-dasharray="5,2" d="M275.04,-155.65C263.12,-95.71 260.72,-79.47 265.02,-55.3"/>
<polygon fill="purple" stroke="purple" points="267.47,-55.57 266.41,-48.23 262.66,-54.63 267.47,-55.57"/>
</g>
<!-- SearchIncidents&#45;&gt;GetIncidentTasks -->
<g id="edge7" class="edge">
<title>SearchIncidents&#45;&gt;GetIncidentTasks</title>
<path fill="none" stroke="black" stroke-width="1.5" d="M251.79,-155.88C161.61,-90.88 137.43,-73.63 104.61,-52.14"/>
<polygon fill="black" stroke="black" stroke-width="1.5" points="105.57,-49.84 98.37,-48.07 102.89,-53.94 105.57,-49.84"/>
</g>
<!-- SearchIncidents&#45;&gt;GetIncidentComments -->
<g id="edge6" class="edge">
<title>SearchIncidents&#45;&gt;GetIncidentComments</title>
<path fill="none" stroke="black" stroke-width="1.5" d="M295.67,-155.91C351.97,-89.88 374.82,-65.07 407.94,-50.3"/>
<polygon fill="black" stroke="black" stroke-width="1.5" points="409.2,-52.43 414.71,-47.47 407.31,-47.91 409.2,-52.43"/>
</g>
<!-- SearchDepartments&#45;&gt;SearchIncidents -->
<g id="edge4" class="edge">
<title>SearchDepartments&#45;&gt;SearchIncidents</title>
<path fill="none" stroke="purple" stroke-dasharray="5,2" d="M271.55,-302.82C253.44,-254.29 252.33,-242.38 268.23,-201.84"/>
<polygon fill="purple" stroke="purple" points="270.61,-202.49 270.92,-195.08 266.05,-200.68 270.61,-202.49"/>
</g>
</g>
</svg>
