<?xml version="1.0" encoding="UTF-8" standalone="no"?>
<!DOCTYPE svg PUBLIC "-//W3C//DTD SVG 1.1//EN"
 "http://www.w3.org/Graphics/SVG/1.1/DTD/svg11.dtd">
<!-- Generated by graphviz version 2.43.0 (0)
 -->
<!-- Title: %3 Pages: 1 -->
<svg width="1166pt" height="955pt"
 viewBox="72.00 72.00 1094.00 883.00" xmlns="http://www.w3.org/2000/svg" xmlns:xlink="http://www.w3.org/1999/xlink">
<g id="graph0" class="graph" transform="scale(1 1) rotate(0) translate(144 811)">
<title>%3</title>
<polygon fill="white" stroke="transparent" points="-72,72 -72,-739 950,-739 950,72 -72,72"/>
<!-- GetCompanyByName -->
<g id="node1" class="node">
<title>GetCompanyByName</title>
<g id="a_node1"><a xlink:title="Read API: GetCompanyByName">
<path fill="lightgreen" stroke="black" d="M406,-667C406,-667 272,-667 272,-667 266,-667 260,-661 260,-655 260,-655 260,-621 260,-621 260,-615 266,-609 272,-609 272,-609 406,-609 406,-609 412,-609 418,-615 418,-621 418,-621 418,-655 418,-655 418,-661 412,-667 406,-667"/>
<text text-anchor="middle" x="339" y="-635.2" font-family="Arial" font-size="11.00">Getcompanybyname</text>
</a>
</g>
</g>
<!-- SearchUsers -->
<g id="node2" class="node">
<title>SearchUsers</title>
<g id="a_node2"><a xlink:title="Read API: SearchUsers">
<path fill="lightgreen" stroke="black" d="M282,-464C282,-464 162,-464 162,-464 156,-464 150,-458 150,-452 150,-452 150,-418 150,-418 150,-412 156,-406 162,-406 162,-406 282,-406 282,-406 288,-406 294,-412 294,-418 294,-418 294,-452 294,-452 294,-458 288,-464 282,-464"/>
<text text-anchor="middle" x="222" y="-432.2" font-family="Arial" font-size="11.00">Searchusers</text>
</a>
</g>
</g>
<!-- GetCompanyByName&#45;&gt;SearchUsers -->
<g id="edge1" class="edge">
<title>GetCompanyByName&#45;&gt;SearchUsers</title>
<g id="a_edge1"><a xlink:title="Implicit: company_id → company_id">
<path fill="none" stroke="purple" stroke-width="1.5" stroke-dasharray="5,2" d="M300.4,-608.83C256.71,-573.93 248.14,-554.21 230.05,-472.26"/>
<polygon fill="purple" stroke="purple" stroke-width="1.5" points="232.72,-471.35 228.27,-464.13 227.25,-472.55 232.72,-471.35"/>
</a>
</g>
<text text-anchor="middle" x="317" y="-534.3" font-family="Arial" font-size="9.00">company id</text>
</g>
<!-- SearchDepartments -->
<g id="node3" class="node">
<title>SearchDepartments</title>
<g id="a_node3"><a xlink:title="Read API: SearchDepartments">
<path fill="lightgreen" stroke="black" d="M521.5,-464C521.5,-464 392.5,-464 392.5,-464 386.5,-464 380.5,-458 380.5,-452 380.5,-452 380.5,-418 380.5,-418 380.5,-412 386.5,-406 392.5,-406 392.5,-406 521.5,-406 521.5,-406 527.5,-406 533.5,-412 533.5,-418 533.5,-418 533.5,-452 533.5,-452 533.5,-458 527.5,-464 521.5,-464"/>
<text text-anchor="middle" x="457" y="-432.2" font-family="Arial" font-size="11.00">Searchdepartments</text>
</a>
</g>
</g>
<!-- GetCompanyByName&#45;&gt;SearchDepartments -->
<g id="edge2" class="edge">
<title>GetCompanyByName&#45;&gt;SearchDepartments</title>
<g id="a_edge2"><a xlink:title="Implicit: company_id → company_id">
<path fill="none" stroke="purple" stroke-width="1.5" stroke-dasharray="5,2" d="M364.53,-608.88C388.55,-579.93 400.09,-557.61 440.1,-471.48"/>
<polygon fill="purple" stroke="purple" stroke-width="1.5" points="442.71,-472.5 443.54,-464.06 437.63,-470.14 442.71,-472.5"/>
</a>
</g>
<text text-anchor="middle" x="445" y="-534.3" font-family="Arial" font-size="9.00">company id</text>
</g>
<!-- GetIncident -->
<g id="node4" class="node">
<title>GetIncident</title>
<g id="a_node4"><a xlink:title="Read API: GetIncident">
<path fill="lightgreen" stroke="black" d="M535,-261C535,-261 415,-261 415,-261 409,-261 403,-255 403,-249 403,-249 403,-215 403,-215 403,-209 409,-203 415,-203 415,-203 535,-203 535,-203 541,-203 547,-209 547,-215 547,-215 547,-249 547,-249 547,-255 541,-261 535,-261"/>
<text text-anchor="middle" x="475" y="-229.2" font-family="Arial" font-size="11.00">Getincident</text>
</a>
</g>
</g>
<!-- SearchUsers&#45;&gt;GetIncident -->
<g id="edge3" class="edge">
<title>SearchUsers&#45;&gt;GetIncident</title>
<g id="a_edge3"><a xlink:title="Implicit: user_id → reported_by">
<path fill="none" stroke="purple" stroke-width="1.5" stroke-dasharray="5,2" d="M240.04,-405.55C279.55,-342.38 298.63,-326.46 412.84,-265.1"/>
<polygon fill="purple" stroke="purple" stroke-width="1.5" points="414.41,-267.43 420.13,-261.18 411.76,-262.5 414.41,-267.43"/>
</a>
</g>
<text text-anchor="middle" x="383" y="-331.3" font-family="Arial" font-size="9.00">user id → reported by</text>
</g>
<!-- SearchIncidents -->
<g id="node5" class="node">
<title>SearchIncidents</title>
<g id="a_node5"><a xlink:title="Read API: SearchIncidents">
<path fill="lightgreen" stroke="black" d="M282,-261C282,-261 162,-261 162,-261 156,-261 150,-255 150,-249 150,-249 150,-215 150,-215 150,-209 156,-203 162,-203 162,-203 282,-203 282,-203 288,-203 294,-209 294,-215 294,-215 294,-249 294,-249 294,-255 288,-261 282,-261"/>
<text text-anchor="middle" x="222" y="-229.2" font-family="Arial" font-size="11.00">Searchincidents</text>
</a>
</g>
</g>
<!-- SearchUsers&#45;&gt;SearchIncidents -->
<g id="edge5" class="edge">
<title>SearchUsers&#45;&gt;SearchIncidents</title>
<g id="a_edge5"><a xlink:title="Implicit: user_id → reported_by">
<path fill="none" stroke="purple" stroke-width="1.5" stroke-dasharray="5,2" d="M210.32,-405.55C186.29,-343.7 185.33,-327.15 207.46,-268.89"/>
<polygon fill="purple" stroke="purple" stroke-width="1.5" points="210.17,-269.65 210.42,-261.18 204.94,-267.64 210.17,-269.65"/>
</a>
</g>
<text text-anchor="middle" x="266" y="-331.3" font-family="Arial" font-size="9.00">user id → reported by</text>
</g>
<!-- SearchDepartments&#45;&gt;SearchIncidents -->
<g id="edge4" class="edge">
<title>SearchDepartments&#45;&gt;SearchIncidents</title>
<g id="a_edge4"><a xlink:title="Implicit: department_id → department_id">
<path fill="none" stroke="purple" stroke-width="1.5" stroke-dasharray="5,2" d="M405.47,-405.79C296.31,-343.5 275.94,-327.1 242.07,-268.21"/>
<polygon fill="purple" stroke="purple" stroke-width="1.5" points="244.48,-266.78 238.09,-261.21 239.61,-269.55 244.48,-266.78"/>
</a>
</g>
<text text-anchor="middle" x="472.5" y="-331.3" font-family="Arial" font-size="9.00">department id</text>
</g>
<!-- GetIncidentComments -->
<g id="node6" class="node">
<title>GetIncidentComments</title>
<g id="a_node6"><a xlink:title="Read API: GetIncidentComments">
<path fill="lightgreen" stroke="black" d="M636,-58C636,-58 498,-58 498,-58 492,-58 486,-52 486,-46 486,-46 486,-12 486,-12 486,-6 492,0 498,0 498,0 636,0 636,0 642,0 648,-6 648,-12 648,-12 648,-46 648,-46 648,-52 642,-58 636,-58"/>
<text text-anchor="middle" x="567" y="-26.2" font-family="Arial" font-size="11.00">Getincidentcomments</text>
</a>
</g>
</g>
<!-- GetIncident&#45;&gt;GetIncidentComments -->
<g id="edge9" class="edge">
<title>GetIncident&#45;&gt;GetIncidentComments</title>
<g id="a_edge9"><a xlink:title="Explicit: incident_id → incident_id">
<path fill="none" stroke="black" stroke-width="1.5" d="M487.8,-202.84C524.39,-119.51 535.29,-94.91 549.12,-65.93"/>
<polygon fill="black" stroke="black" stroke-width="1.5" points="551.79,-66.85 552.72,-58.42 546.74,-64.43 551.79,-66.85"/>
</a>
</g>
<text text-anchor="middle" x="588.5" y="-128.3" font-family="Arial" font-size="9.00">incident id</text>
</g>
<!-- GetIncidentTasks -->
<g id="node7" class="node">
<title>GetIncidentTasks</title>
<g id="a_node7"><a xlink:title="Read API: GetIncidentTasks">
<path fill="lightgreen" stroke="black" d="M132,-58C132,-58 12,-58 12,-58 6,-58 0,-52 0,-46 0,-46 0,-12 0,-12 0,-6 6,0 12,0 12,0 132,0 132,0 138,0 144,-6 144,-12 144,-12 144,-46 144,-46 144,-52 138,-58 132,-58"/>
<text text-anchor="middle" x="72" y="-26.2" font-family="Arial" font-size="11.00">Getincidenttasks</text>
</a>
</g>
</g>
<!-- GetIncident&#45;&gt;GetIncidentTasks -->
<g id="edge10" class="edge">
<title>GetIncident&#45;&gt;GetIncidentTasks</title>
<g id="a_edge10"><a xlink:title="Explicit: incident_id → incident_id">
<path fill="none" stroke="black" stroke-width="1.5" d="M431.13,-202.92C267.31,-94.45 223.48,-67.52 151.97,-47.76"/>
<polygon fill="black" stroke="black" stroke-width="1.5" points="152.49,-45 144.04,-45.63 151.03,-50.41 152.49,-45"/>
</a>
</g>
<text text-anchor="middle" x="312.5" y="-128.3" font-family="Arial" font-size="9.00">incident id</text>
</g>
<!-- SearchChangeRequests -->
<g id="node8" class="node">
<title>SearchChangeRequests</title>
<g id="a_node8"><a xlink:title="Read API: SearchChangeRequests">
<path fill="lightgreen" stroke="black" d="M388,-58C388,-58 242,-58 242,-58 236,-58 230,-52 230,-46 230,-46 230,-12 230,-12 230,-6 236,0 242,0 242,0 388,0 388,0 394,0 400,-6 400,-12 400,-12 400,-46 400,-46 400,-52 394,-58 388,-58"/>
<text text-anchor="middle" x="315" y="-26.2" font-family="Arial" font-size="11.00">Searchchangerequests</text>
</a>
</g>
</g>
<!-- GetIncident&#45;&gt;SearchChangeRequests -->
<g id="edge11" class="edge">
<title>GetIncident&#45;&gt;SearchChangeRequests</title>
<g id="a_edge11"><a xlink:title="Implicit: incident_id → incident_id">
<path fill="none" stroke="purple" stroke-width="1.5" stroke-dasharray="5,2" d="M457.57,-202.89C405.33,-115.76 387.84,-88.65 359.31,-63.43"/>
<polygon fill="purple" stroke="purple" stroke-width="1.5" points="360.93,-61.13 353.03,-58.05 357.29,-65.38 360.93,-61.13"/>
</a>
</g>
<text text-anchor="middle" x="496.5" y="-128.3" font-family="Arial" font-size="9.00">incident id</text>
</g>
<!-- LinkIncidentToKB -->
<g id="node10" class="node">
<title>LinkIncidentToKB</title>
<path fill="lightblue" stroke="black" d="M866,-58C866,-58 746,-58 746,-58 740,-58 734,-52 734,-46 734,-46 734,-12 734,-12 734,-6 740,0 746,0 746,0 866,0 866,0 872,0 878,-6 878,-12 878,-12 878,-46 878,-46 878,-52 872,-58 866,-58"/>
<text text-anchor="middle" x="806" y="-26.2" font-family="Arial" font-size="11.00">LinkIncidentToKB</text>
</g>
<!-- GetIncident&#45;&gt;LinkIncidentToKB -->
<g id="edge13" class="edge">
<title>GetIncident&#45;&gt;LinkIncidentToKB</title>
<g id="a_edge13"><a xlink:title="Explicit: incident_id → incident_id">
<path fill="none" stroke="black" stroke-width="1.5" d="M516.05,-202.81C641.8,-113.48 682.89,-85.26 731.7,-61.52"/>
<polygon fill="black" stroke="black" stroke-width="1.5" points="732.96,-64.02 738.97,-58.05 730.54,-58.97 732.96,-64.02"/>
</a>
</g>
<text text-anchor="middle" x="708.5" y="-128.3" font-family="Arial" font-size="9.00">incident id</text>
</g>
<!-- SearchIncidents&#45;&gt;GetIncidentComments -->
<g id="edge6" class="edge">
<title>SearchIncidents&#45;&gt;GetIncidentComments</title>
<g id="a_edge6"><a xlink:title="Explicit: incident_id → incident_id">
<path fill="none" stroke="black" stroke-width="1.5" d="M247.37,-202.69C351.82,-82.37 379.33,-57.45 477.54,-41.07"/>
<polygon fill="black" stroke="black" stroke-width="1.5" points="478.22,-43.8 485.67,-39.76 477.33,-38.27 478.22,-43.8"/>
</a>
</g>
<text text-anchor="middle" x="404.5" y="-128.3" font-family="Arial" font-size="9.00">incident id</text>
</g>
<!-- SearchIncidents&#45;&gt;GetIncidentTasks -->
<g id="edge7" class="edge">
<title>SearchIncidents&#45;&gt;GetIncidentTasks</title>
<g id="a_edge7"><a xlink:title="Explicit: incident_id → incident_id">
<path fill="none" stroke="black" stroke-width="1.5" d="M195.9,-202.77C124.96,-123.22 108.05,-102.66 89.24,-65.38"/>
<polygon fill="black" stroke="black" stroke-width="1.5" points="91.75,-64.14 85.69,-58.21 86.73,-66.62 91.75,-64.14"/>
</a>
</g>
<text text-anchor="middle" x="111.5" y="-128.3" font-family="Arial" font-size="9.00">incident id</text>
</g>
<!-- SearchIncidents&#45;&gt;SearchChangeRequests -->
<g id="edge8" class="edge">
<title>SearchIncidents&#45;&gt;SearchChangeRequests</title>
<g id="a_edge8"><a xlink:title="Implicit: incident_id → incident_id">
<path fill="none" stroke="purple" stroke-width="1.5" stroke-dasharray="5,2" d="M225.84,-202.92C237.02,-119.79 242.74,-98.34 277.28,-63.8"/>
<polygon fill="purple" stroke="purple" stroke-width="1.5" points="279.31,-65.72 283.08,-58.13 275.4,-61.72 279.31,-65.72"/>
</a>
</g>
<text text-anchor="middle" x="220.5" y="-128.3" font-family="Arial" font-size="9.00">incident id</text>
</g>
<!-- SearchKBArticles -->
<g id="node9" class="node">
<title>SearchKBArticles</title>
<g id="a_node9"><a xlink:title="Read API: SearchKBArticles">
<path fill="lightgreen" stroke="black" d="M866,-261C866,-261 746,-261 746,-261 740,-261 734,-255 734,-249 734,-249 734,-215 734,-215 734,-209 740,-203 746,-203 746,-203 866,-203 866,-203 872,-203 878,-209 878,-215 878,-215 878,-249 878,-249 878,-255 872,-261 866,-261"/>
<text text-anchor="middle" x="806" y="-229.2" font-family="Arial" font-size="11.00">Searchkbarticles</text>
</a>
</g>
</g>
<!-- SearchKBArticles&#45;&gt;LinkIncidentToKB -->
<g id="edge12" class="edge">
<title>SearchKBArticles&#45;&gt;LinkIncidentToKB</title>
<g id="a_edge12"><a xlink:title="Explicit: knowledge_base_id → knowledge_base_id">
<path fill="none" stroke="black" stroke-width="1.5" d="M814.54,-202.73C836.09,-128.1 838.4,-109.41 821.48,-65.78"/>
<polygon fill="black" stroke="black" stroke-width="1.5" points="824.04,-64.64 818.48,-58.25 818.84,-66.72 824.04,-64.64"/>
</a>
</g>
<text text-anchor="middle" x="829" y="-133.3" font-family="Arial" font-size="9.00">knowledge</text>
<text text-anchor="middle" x="829" y="-123.3" font-family="Arial" font-size="9.00">base id</text>
</g>
</g>
</svg>
